HIERARCHY
ROOT Hips
{
	OFFSET 0.00000 0.00000 0.00000
	CHANNELS 6 Xposition Yposition Zposition Yrotation Zrotation Xrotation 
	JOINT Lumbar
	{
		OFFSET 0 0 0
		CHANNELS 3 Zrotation Xrotation Yrotation
		JOINT Neck
		{
			OFFSET 0.00 0.2701 0.00
			CHANNELS 3 Zrotation Xrotation Yrotation
			End Site
			{
				OFFSET 0.00 0.1379 0.00
			}
		}
		JOINT RightShoulder
		{
			OFFSET 0.0119 0.2289 0.1181
			CHANNELS 3 Zrotation Xrotation Yrotation
			JOINT RightElbow
			{
				OFFSET 0.00 -0.1475 0.00
				CHANNELS 2 Zrotation Yrotation
				JOINT RightWrist
				{
					OFFSET 0.00 -0.1605 0.00
					CHANNELS 2 Zrotation Xrotation
					End Site
					{
						OFFSET 0.0040 -0.1068 0.0006
					}
				}
			}
		}
		JOINT LeftShoulder
		{
			OFFSET 0.0119 0.2289 -0.1181
			CHANNELS 3 Zrotation Xrotation Yrotation
			JOINT LeftElbow
			{
				OFFSET 0.00 -0.1475 0.00
				CHANNELS 2 Zrotation Yrotation
				JOINT LeftWrist
				{
					OFFSET 0.00 -0.1605 0.00
					CHANNELS 2 Zrotation Xrotation
					End Site
					{
						OFFSET 0.0040 -0.1068 -0.0006
					}
				}
			}
		}
	}
	JOINT RightHip
	{
		OFFSET 0.0316 -0.0424 0.0458
		CHANNELS 3 Zrotation Xrotation Yrotation
		JOINT RightKnee
		{
			OFFSET 0.00 -0.2438 0.00
			CHANNELS 1 Zrotation
			JOINT RightAnkle
			{
				OFFSET 0.00 -0.2449 0.00
				CHANNELS 3 Zrotation Xrotation Yrotation
				End Site
				{
					OFFSET 0.1237 -0.0542 0.0051
				}
			}
		}
	}
	JOINT LeftHip
	{
		OFFSET 0.0316 -0.0424 -0.0458
		CHANNELS 3 Zrotation Xrotation Yrotation
		JOINT LeftKnee
		{
			OFFSET 0.00 -0.2438 0.00
			CHANNELS 1 Zrotation
			JOINT LeftAnkle
			{
				OFFSET 0.00 -0.2449 0.00
				CHANNELS 3 Zrotation Xrotation Yrotation
				End Site
				{
					OFFSET 0.1237 -0.0542 -0.0051
				}
			}
		}
	}
}
MOTION
Frames: 14
Frame Time: 0.02
-0.00152 -4e-05 -0.00018 20.99467 -29.85412 -5.43565 46.53123 2.73043 -6.18252 12.46018 0.56104 -0.69731 12.80284 -13.29957 15.97955 34.83426 83.93309 2.38057 -0.97928 26.8855 5.25289 -17.20632 37.67078 -83.05022 -0.22212 6.58344 45.08393 -1.24833 -3.45547 -19.36804 -6.55852 -2.63536 -3.52289 48.66119 4.72532 10.10463 -25.22365 -6.70998 1.27809 2.87074
-0.00154 -3e-05 -7e-05 20.94389 -29.84564 -5.42671 46.51284 2.72536 -6.0058 12.34509 0.61928 -0.69958 12.36615 -13.24848 16.17171 34.87924 84.06121 2.54853 -0.97449 26.403 5.29882 -17.69125 38.64902 -83.10719 -0.26477 5.26421 45.08447 -1.32081 -3.93204 -19.37238 -6.55278 -2.58093 -3.49361 48.65873 4.72264 10.0427 -25.23148 -6.70469 1.29374 2.87825
-0.00155 -2e-05 4e-05 20.8931 -29.83718 -5.41776 46.4944 2.72033 -5.82952 12.22997 0.67762 -0.70193 11.92956 -13.19748 16.36273 34.92303 84.18899 2.71588 -0.96962 25.91939 5.34514 -18.17443 39.62437 -83.16409 -0.30698 3.95064 45.08503 -1.3931 -4.40731 -19.3767 -6.54705 -2.52663 -3.46441 48.65625 4.71995 9.98087 -25.23928 -6.69942 1.30937 2.88575
-0.00157 -2e-05 0.00015 20.84245 -29.82873 -5.40885 46.47606 2.71528 -5.65332 12.11518 0.73573 -0.7042 11.49401 -13.14652 16.55427 34.96774 84.31662 2.88329 -0.96486 25.43802 5.39099 -18.65785 40.59966 -83.22086 -0.34946 2.63579 45.08557 -1.46535 -4.88242 -19.38103 -6.54132 -2.47237 -3.43522 48.65379 4.71728 9.91911 -25.24708 -6.69414 1.32497 2.89325
-0.00159 -1e-05 0.00026 20.79187 -29.82026 -5.39993 46.4578 2.7102 -5.47675 12.00053 0.79364 -0.70635 11.05883 -13.09554 16.74698 35.0139 84.44486 3.05139 -0.9601 24.95855 5.43629 -19.14305 41.57766 -83.27776 -0.39248 1.3145 45.08611 -1.53781 -5.35882 -19.38538 -6.53557 -2.41798 -3.40596 48.65135 4.71464 9.85728 -25.25492 -6.68886 1.34059 2.90074
-0.00161 -0 0.00037 20.74063 -29.81182 -5.39092 46.43897 2.70528 -5.30107 11.88442 0.85289 -0.70912 10.61934 -13.04449 16.93437 35.05263 84.57183 3.21719 -0.95496 24.46618 5.48475 -19.62189 42.5473 -83.33469 -0.43294 0.01713 45.08673 -1.60974 -5.83169 -19.38965 -6.52989 -2.36387 -3.37687 48.6488 4.71184 9.79546 -25.26264 -6.68359 1.35625 2.90827
-0.00163 1e-05 0.00048 20.69082 -29.80333 -5.38214 46.42136 2.69998 -5.12376 11.77143 0.90936 -0.71063 10.18897 -12.99358 17.13268 35.10659 84.70043 3.38728 -0.95086 24.00077 5.52671 -20.11318 43.53299 -83.39123 -0.47858 -1.32635 45.08713 -1.6826 -6.31102 -19.39407 -6.52407 -2.30929 -3.34749 48.64645 4.70937 9.7337 -25.27058 -6.67831 1.37179 2.91571
-0.00165 1e-05 0.00059 20.63958 -29.7949 -5.37309 46.4025 2.69515 -4.94802 11.65546 0.96842 -0.71331 9.75023 -12.94263 17.32015 35.14594 84.82898 3.5537 -0.94529 23.50968 5.57484 -20.59266 44.50333 -83.44864 -0.51933 -2.6284 45.08781 -1.7547 -6.78463 -19.39835 -6.51839 -2.25508 -3.31836 48.64397 4.70655 9.67186 -25.27832 -6.67304 1.38746 2.92324
-0.00167 2e-05 0.0007 20.58698 -29.78645 -5.36392 46.38258 2.69045 -4.77386 11.53615 1.03061 -0.71744 9.30069 -12.89126 17.49739 35.16951 84.95175 3.71455 -0.93995 22.98979 5.62993 -21.05917 45.45755 -83.50512 -0.55453 -3.87577 45.08857 -1.82553 -7.25053 -19.40248 -6.51282 -2.20154 -3.28959 48.64113 4.70352 9.60999 -25.2858 -6.66775 1.40324 2.93087
-0.00168 3e-05 0.00082 20.54337 -29.77785 -5.35606 46.37018 2.68367 -4.58955 11.43696 1.07468 -0.71329 8.91154 -12.84119 17.74257 35.29006 85.09056 3.90422 -0.93936 22.64333 5.64323 -21.60473 46.51247 -83.56096 -0.62292 -5.4256 45.08808 -1.90263 -7.75865 -19.40754 -6.50645 -2.14478 -3.25891 48.63976 4.70236 9.54847 -25.29472 -6.6625 1.41822 2.93789
-0.00171 3e-05 0.00092 20.48006 -29.76976 -5.34506 46.34099 2.68211 -4.42738 11.2948 1.15704 -0.72654 8.39627 -12.78909 17.83865 35.20219 85.20655 4.03514 -0.9249 21.92633 5.74577 -21.98066 47.34979 -83.62197 -0.62052 -6.34512 45.09071 -1.96715 -8.17899 -19.4106 -6.50187 -2.09445 -3.23214 48.63566 4.69683 9.48613 -25.30066 -6.6572 1.43499 2.94623
-0.00174 0 0.00098 20.36782 -29.76159 -5.3283 46.27251 2.68851 -4.32045 11.03741 1.3453 -0.78855 7.52073 -12.72588 17.56822 34.56835 85.16298 3.98494 -0.90548 20.21828 6.08697 -21.9096 47.62819 -83.66656 -0.42791 -5.45286 45.09835 -1.99136 -8.3447 -19.40845 -6.50157 -2.06478 -3.21735 48.62106 4.68277 9.42352 -25.29794 -6.65158 1.45583 2.95775
-0.00178 -4e-05 0.00103 20.23455 -29.75425 -5.30776 46.18563 2.70151 -4.23674 10.7362 1.57195 -0.86783 6.52149 -12.66203 17.13981 33.72089 85.11028 3.87855 -0.86739 18.1327 6.51901 -21.66455 47.68216 -83.72231 -0.1634 -3.94245 45.11 -2.00395 -8.42409 -19.40426 -6.50321 -2.04103 -3.20628 48.60435 4.66381 9.36069 -25.29231 -6.64597 1.47858 2.97062
-0.00183 -8e-05 0.00109 20.10794 -29.74745 -5.28721 46.1031 2.71548 -4.14607 10.45345 1.78036 -0.93855 5.58764 -12.60156 16.75626 32.95361 85.13044 3.81202 -0.81439 16.20388 6.91341 -21.48737 47.81246 -83.79253 0.07075 -2.7691 45.12188 -2.02568 -8.55292 -19.40082 -6.50434 -2.01252 -3.19265 48.59053 4.64466 9.2954 -25.28833 -6.64045 1.5011 2.98317
